<?xml version="1.0" standalone="no"?><!DOCTYPE svg PUBLIC "-//W3C//DTD SVG 1.1//EN" "http://www.w3.org/Graphics/SVG/1.1/DTD/svg11.dtd"><svg t="1768557595713" class="icon" viewBox="0 0 1192 1024" version="1.1" xmlns="http://www.w3.org/2000/svg" p-id="5134" xmlns:xlink="http://www.w3.org/1999/xlink" width="232.8125" height="200"><path d="M1192.824929 1024l-53.370243-13.689467a1076.437771 1076.437771 0 0 0-524.682858-2.268236l-1.080748 0.293537c-6.257661 1.761218-25.350865 7.111585-43.40335-6.591225a45.48479 45.48479 0 0 1-17.825661-36.6787v-0.120083a42.696194 42.696194 0 0 1 42.696195-42.696194 43.163184 43.163184 0 0 1 8.138962 0.773868A1162.750797 1162.750797 0 0 1 1107.43254 915.25813V111.315476a1076.597882 1076.597882 0 0 0-469.524712 0v647.594528a42.696194 42.696194 0 0 1-85.392389 0V44.549303l32.022146-8.23236a1161.36317 1161.36317 0 0 1 576.265198-0.013343l32.022146 8.23236z" fill="#2c2c2c" p-id="5135"></path><path d="M0 1024V44.549303l32.022146-8.23236A1146.953205 1146.953205 0 0 1 449.911148 7.670465a42.696194 42.696194 0 1 1-9.753412 84.832001A1061.881038 1061.881038 0 0 0 85.392389 111.302134v803.969339a1155.78598 1155.78598 0 0 1 510.192836 10.00692c1.734533 0.426962 3.215557 0.813896 4.456416 1.160803a42.77625 42.77625 0 0 1 19.827045 76.506243c-11.381204 8.605952-24.977274 10.754104-40.401274 6.404429-1.214173-0.346907-2.588457-0.733841-4.469758-1.20083A1069.619723 1069.619723 0 0 0 53.370243 1010.310533z m551.488062-55.38497z" fill="#2c2c2c" p-id="5136"></path></svg>