<?xml version="1.0" standalone="no"?><!DOCTYPE svg PUBLIC "-//W3C//DTD SVG 1.1//EN" "http://www.w3.org/Graphics/SVG/1.1/DTD/svg11.dtd"><svg t="1768557586600" class="icon" viewBox="0 0 1024 1024" version="1.1" xmlns="http://www.w3.org/2000/svg" p-id="4053" xmlns:xlink="http://www.w3.org/1999/xlink" width="200" height="200"><path d="M791.04 384L378.88 147.626667a145.92 145.92 0 0 0-218.88 128v474.453333A145.92 145.92 0 0 0 305.92 896a146.346667 146.346667 0 0 0 72.96-19.626667L791.04 640a145.92 145.92 0 0 0 0-252.586667z m-42.666667 178.773333l-412.16 239.786667a61.44 61.44 0 0 1-60.586666 0 60.586667 60.586667 0 0 1-30.293334-52.48V273.92a60.586667 60.586667 0 0 1 30.293334-52.48A64.426667 64.426667 0 0 1 305.92 213.333333a65.706667 65.706667 0 0 1 30.293333 8.106667l412.16 238.08a60.586667 60.586667 0 0 1 0 104.96z" p-id="4054" fill="#2c2c2c"></path></svg>