<?xml version="1.0" standalone="no"?><!DOCTYPE svg PUBLIC "-//W3C//DTD SVG 1.1//EN" "http://www.w3.org/Graphics/SVG/1.1/DTD/svg11.dtd"><svg t="1768557265770" class="icon" viewBox="0 0 1024 1024" version="1.1" xmlns="http://www.w3.org/2000/svg" p-id="23555" xmlns:xlink="http://www.w3.org/1999/xlink" width="200" height="200"><path d="M1024 512c0-282.784-229.216-512-512-512S0 229.216 0 512c0 220.064 138.848 407.648 333.696 480.064L320 1024h384l-13.696-31.936C885.152 919.648 1024 732.064 1024 512z m-537.216 122.816a64 64 0 1 1 50.432 0.032L512 576l-25.216 58.816z m51.488 2.464a128 128 0 1 0-52.512-0.064l-74.624 174.112A256.064 256.064 0 0 1 256 575.968c0-141.376 114.624-268 256-268s256 126.624 256 268a256.096 256.096 0 0 1-155.136 235.36l-74.592-174.048z m150.176 350.432l-73.92-172.48C740.96 772.48 832 652.896 832 512c0-176.736-143.264-320-320-320S192 335.264 192 512c0 140.864 91.04 260.48 217.472 303.232l-73.92 172.48C175.968 919.232 64.16 760.672 64.16 576 64.16 328.672 264.672 116.16 512 116.16S959.84 328.672 959.84 576c0 184.672-111.808 343.232-271.392 411.712z" p-id="23556" fill="#2c2c2c"></path></svg>